  <svg width="38" height="36" viewBox="0 0 38 36" fill="none" xmlns="http://www.w3.org/2000/svg">
    <path d="M36.8125 16.8H32.3014L23.4902 3.44295C23.6456 3.12652 23.75 2.77965 23.75 2.4C23.75 1.0734 22.6878 0 21.375 0C20.0634 0 19 1.07348 19 2.4C19 3.72653 20.0634 4.8 21.375 4.8C21.4237 4.8 21.4655 4.7742 21.5119 4.77188L29.4486 16.8H8.55252L16.487 4.77188C16.5357 4.7742 16.5763 4.8 16.625 4.8C17.9366 4.8 19 3.72653 19 2.4C19 1.07348 17.9366 0 16.625 0C15.3134 0 14.25 1.07348 14.25 2.4C14.25 2.77973 14.3544 3.1242 14.5098 3.44295L5.69748 16.8H1.1875C0.531109 16.8 0 17.3367 0 18C0 18.6633 0.531109 19.2 1.1875 19.2H2.96875L6.54862 33.6727C6.86523 34.9523 8.1942 36 9.5 36H28.5C29.8058 36 31.1348 34.9523 31.4502 33.6727L35.0312 19.2H36.8125C37.4689 19.2 38 18.6633 38 18C38 17.3367 37.4689 16.8 36.8125 16.8ZM26.125 33.6H11.875C11.2186 33.6 10.6875 33.0633 10.6875 32.4C10.6875 31.7367 11.2186 31.2 11.875 31.2H26.125C26.7814 31.2 27.3125 31.7367 27.3125 32.4C27.3125 33.0633 26.7814 33.6 26.125 33.6ZM27.3125 28.8H10.6875C10.0311 28.8 9.5 28.2633 9.5 27.6C9.5 26.9367 10.0311 26.4 10.6875 26.4H27.3125C27.9689 26.4 28.5 26.9367 28.5 27.6C28.5 28.2633 27.9689 28.8 27.3125 28.8ZM28.5 24H9.5C8.84361 24 8.3125 23.4633 8.3125 22.8C8.3125 22.1367 8.84361 21.6 9.5 21.6H28.5C29.1564 21.6 29.6875 22.1367 29.6875 22.8C29.6875 23.4633 29.1564 24 28.5 24Z" fill="white"/>
</svg>