<svg width="110" height="110" viewBox="0 0 110 110" fill="none" xmlns="http://www.w3.org/2000/svg">
<path d="M55 77C50.6488 77 46.3953 75.7097 42.7775 73.2923C39.1596 70.8749 36.3398 67.439 34.6747 63.419C33.0095 59.3991 32.5739 54.9756 33.4227 50.708C34.2716 46.4404 36.3669 42.5204 39.4437 39.4437C42.5204 36.3669 46.4404 34.2716 50.708 33.4227C54.9756 32.5739 59.3991 33.0095 63.419 34.6747C67.439 36.3398 70.8749 39.1596 73.2923 42.7775C75.7097 46.3953 77 50.6488 77 55C77 60.8348 74.6821 66.4305 70.5563 70.5563C66.4305 74.6821 60.8348 77 55 77ZM55 40.3333C52.0992 40.3333 49.2636 41.1935 46.8516 42.8051C44.4397 44.4167 42.5599 46.7073 41.4498 49.3873C40.3397 52.0673 40.0492 55.0163 40.6152 57.8613C41.1811 60.7064 42.5779 63.3197 44.6291 65.3709C46.6803 67.4221 49.2936 68.8189 52.1387 69.3848C54.9837 69.9508 57.9327 69.6603 60.6127 68.5502C63.2927 67.4401 65.5833 65.5603 67.1949 63.1484C68.8065 60.7364 69.6667 57.9008 69.6667 55C69.6667 51.1102 68.1214 47.3796 65.3709 44.6291C62.6204 41.8786 58.8898 40.3333 55 40.3333Z" fill="#B39016"/>
<path d="M73.3333 110H36.6667C32.7768 110 29.0463 108.455 26.2958 105.704C23.5452 102.954 22 99.2231 22 95.3333V85.9833C22.0066 85.2552 22.2298 84.5455 22.6412 83.9448C23.0526 83.344 23.6335 82.8793 24.31 82.61L37.6567 77.2566C38.1091 77.056 38.5974 76.9491 39.0922 76.9423C39.5871 76.9355 40.0782 77.0289 40.5359 77.2169C40.9937 77.405 41.4087 77.6837 41.7558 78.0364C42.103 78.3891 42.3752 78.8084 42.556 79.269C42.7368 79.7297 42.8225 80.2222 42.8079 80.7169C42.7932 81.2115 42.6786 81.6981 42.471 82.1473C42.2633 82.5965 41.9668 82.999 41.5995 83.3306C41.2321 83.6622 40.8014 83.9159 40.3333 84.0766L29.3333 88.4766V95.3333C29.3333 97.2782 30.1059 99.1435 31.4812 100.519C32.8565 101.894 34.7217 102.667 36.6667 102.667H73.3333C75.2782 102.667 77.1435 101.894 78.5188 100.519C79.894 99.1435 80.6666 97.2782 80.6666 95.3333V88.4766L69.6666 84.0766C68.7623 83.7168 68.0378 83.0125 67.6528 82.1185C67.2677 81.2246 67.2535 80.2143 67.6133 79.31C67.9731 78.4056 68.6775 77.6812 69.5714 77.2961C70.4653 76.911 71.4756 76.8968 72.38 77.2566L85.7266 82.61C86.4031 82.8793 86.984 83.344 87.3954 83.9448C87.8068 84.5455 88.03 85.2552 88.0366 85.9833V95.3333C88.0366 97.2624 87.6561 99.1726 86.9167 100.954C86.1773 102.736 85.0937 104.355 83.7279 105.717C82.3621 107.08 80.7409 108.159 78.9573 108.894C77.1736 109.629 75.2624 110.005 73.3333 110Z" fill="#B39016"/>
<path d="M29.3333 36.6667C25.7073 36.6667 22.1628 35.5914 19.1479 33.5769C16.133 31.5624 13.7832 28.6992 12.3955 25.3492C11.0079 21.9992 10.6449 18.313 11.3523 14.7567C12.0597 11.2004 13.8058 7.93368 16.3697 5.36971C18.9337 2.80575 22.2004 1.05967 25.7567 0.352278C29.313 -0.355117 32.9992 0.00794354 36.3492 1.39555C39.6992 2.78316 42.5624 5.13298 44.5769 8.14788C46.5914 11.1628 47.6667 14.7073 47.6667 18.3333C47.6667 20.7409 47.1925 23.1249 46.2711 25.3492C45.3498 27.5735 43.9994 29.5945 42.2969 31.2969C40.5945 32.9994 38.5735 34.3498 36.3492 35.2711C34.1249 36.1925 31.7409 36.6667 29.3333 36.6667ZM29.3333 7.33334C27.1577 7.33334 25.031 7.97848 23.2221 9.18717C21.4131 10.3959 20.0032 12.1138 19.1707 14.1238C18.3381 16.1338 18.1203 18.3455 18.5447 20.4793C18.9691 22.6131 20.0168 24.5731 21.5552 26.1115C23.0935 27.6499 25.0536 28.6975 27.1873 29.122C29.3211 29.5464 31.5329 29.3286 33.5428 28.496C35.5528 27.6634 37.2708 26.2535 38.4795 24.4446C39.6882 22.6357 40.3333 20.5089 40.3333 18.3333C40.3333 15.416 39.1744 12.6181 37.1115 10.5552C35.0486 8.49226 32.2507 7.33334 29.3333 7.33334Z" fill="#B39016"/>
<path d="M25.6667 67.43H14.6667C10.7768 67.43 7.0463 65.8847 4.29577 63.1342C1.54524 60.3837 1.71892e-06 56.6532 1.71892e-06 52.7633V46.3467C-0.000709181 45.6123 0.219103 44.8946 0.630965 44.2867C1.04283 43.6787 1.62776 43.2084 2.31 42.9367L14.0067 38.3533C14.8974 37.9997 15.8913 38.0089 16.7753 38.379C17.6594 38.7491 18.3634 39.4506 18.7367 40.3333C18.9153 40.7811 19.0038 41.2597 18.9973 41.7417C18.9907 42.2237 18.8892 42.6997 18.6985 43.1425C18.5077 43.5852 18.2316 43.986 17.8858 44.3219C17.54 44.6578 17.1314 44.9222 16.6833 45.1L7.33333 48.84V52.7633C7.33333 54.7082 8.10595 56.5735 9.48121 57.9488C10.8565 59.324 12.7217 60.0966 14.6667 60.0966H25.6667C26.6391 60.0966 27.5717 60.483 28.2594 61.1706C28.947 61.8582 29.3333 62.7908 29.3333 63.7633C29.3333 64.7358 28.947 65.6684 28.2594 66.356C27.5717 67.0437 26.6391 67.43 25.6667 67.43Z" fill="#B39016"/>
<path d="M80.6666 36.6667C77.0406 36.6667 73.4961 35.5914 70.4812 33.5769C67.4663 31.5624 65.1164 28.6992 63.7288 25.3492C62.3412 21.9992 61.9782 18.313 62.6856 14.7567C63.393 11.2004 65.139 7.93368 67.703 5.36971C70.267 2.80575 73.5336 1.05967 77.09 0.352278C80.6463 -0.355117 84.3325 0.00794354 87.6825 1.39555C91.0325 2.78316 93.8957 5.13298 95.9102 8.14788C97.9247 11.1628 98.9999 14.7073 98.9999 18.3333C98.9999 23.1956 97.0684 27.8588 93.6302 31.2969C90.1921 34.7351 85.5289 36.6667 80.6666 36.6667ZM80.6666 7.33334C78.491 7.33334 76.3643 7.97848 74.5554 9.18717C72.7464 10.3959 71.3365 12.1138 70.5039 14.1238C69.6714 16.1338 69.4535 18.3455 69.878 20.4793C70.3024 22.6131 71.3501 24.5731 72.8884 26.1115C74.4268 27.6499 76.3868 28.6975 78.5206 29.122C80.6544 29.5464 82.8661 29.3286 84.8761 28.496C86.8861 27.6634 88.6041 26.2535 89.8128 24.4446C91.0215 22.6357 91.6666 20.5089 91.6666 18.3333C91.6666 15.416 90.5077 12.6181 88.4448 10.5552C86.3819 8.49226 83.584 7.33334 80.6666 7.33334Z" fill="#B39016"/>
<path d="M95.3332 67.43H84.3332C83.3608 67.43 82.4282 67.0437 81.7405 66.356C81.0529 65.6684 80.6666 64.7358 80.6666 63.7633C80.6666 62.7908 81.0529 61.8582 81.7405 61.1706C82.4282 60.483 83.3608 60.0966 84.3332 60.0966H95.3332C97.2782 60.0966 99.1434 59.324 100.519 57.9488C101.894 56.5735 102.667 54.7082 102.667 52.7633V48.84L93.3166 45.1733C92.8685 44.9955 92.4599 44.7311 92.1141 44.3952C91.7683 44.0593 91.4922 43.6585 91.3014 43.2158C91.1107 42.773 91.0092 42.297 91.0026 41.815C90.9961 41.333 91.0846 40.8544 91.2632 40.4067C91.6155 39.504 92.3108 38.7775 93.1971 38.3858C94.0834 37.9942 95.0887 37.9693 95.9932 38.3167L107.69 42.9C108.372 43.1717 108.957 43.642 109.369 44.25C109.781 44.858 110.001 45.5756 110 46.31V52.7266C110.005 54.6558 109.629 56.5669 108.894 58.3506C108.159 60.1343 107.08 61.7554 105.717 63.1212C104.355 64.4871 102.736 65.5707 100.954 66.31C99.1726 67.0494 97.2624 67.43 95.3332 67.43Z" fill="#B39016"/>
</svg>
