<svg width="24" height="35" viewBox="0 0 24 35" fill="none" xmlns="http://www.w3.org/2000/svg">
    <path d="M23.4545 1.16667H16.3636V0.583333C16.3636 0.428624 16.3062 0.280251 16.2039 0.170854C16.1016 0.0614581 15.9628 0 15.8182 0H8.18182C8.03716 0 7.89842 0.0614581 7.79612 0.170854C7.69383 0.280251 7.63636 0.428624 7.63636 0.583333V1.16667H0.545455C0.400791 1.16667 0.262053 1.22812 0.15976 1.33752C0.0574675 1.44692 0 1.59529 0 1.75V34.4167C0 34.5714 0.0574675 34.7197 0.15976 34.8291C0.262053 34.9385 0.400791 35 0.545455 35H23.4545C23.5992 35 23.7379 34.9385 23.8402 34.8291C23.9425 34.7197 24 34.5714 24 34.4167V1.75C24 1.59529 23.9425 1.44692 23.8402 1.33752C23.7379 1.22812 23.5992 1.16667 23.4545 1.16667ZM8.72727 1.16667H15.2727V2.91667C15.2727 3.07138 15.2153 3.21975 15.113 3.32915C15.0107 3.43854 14.8719 3.5 14.7273 3.5H9.27273C9.12806 3.5 8.98933 3.43854 8.88703 3.32915C8.78474 3.21975 8.72727 3.07138 8.72727 2.91667V1.16667ZM9.27273 4.66667H20.7273V31.5H3.27273V4.66667H9.27273ZM22.9091 33.8333H1.09091V2.33333H7.63636V2.91667C7.63817 3.11584 7.67212 3.31318 7.73673 3.5H2.72727C2.58261 3.5 2.44387 3.56146 2.34158 3.67085C2.23929 3.78025 2.18182 3.92862 2.18182 4.08333V32.0833C2.18182 32.238 2.23929 32.3864 2.34158 32.4958C2.44387 32.6052 2.58261 32.6667 2.72727 32.6667H21.2727C21.4174 32.6667 21.5561 32.6052 21.6584 32.4958C21.7607 32.3864 21.8182 32.238 21.8182 32.0833V4.08333C21.8182 3.92862 21.7607 3.78025 21.6584 3.67085C21.5561 3.56146 21.4174 3.5 21.2727 3.5H16.2633C16.3279 3.31318 16.3618 3.11584 16.3636 2.91667V2.33333H22.9091V33.8333Z" fill="white"/>
    <path d="M7.63636 14C8.25497 13.9995 8.86076 13.8114 9.38352 13.4577C9.90627 13.1039 10.3246 12.599 10.5899 12.0014C10.8553 11.4038 10.9568 10.738 10.8828 10.0811C10.8088 9.42433 10.5622 8.8034 10.1716 8.29035L10.8071 7.33893C10.8846 7.21294 10.9135 7.05972 10.8877 6.91143C10.8619 6.76314 10.7834 6.63131 10.6686 6.54361C10.5539 6.45591 10.4118 6.41916 10.2723 6.44106C10.1327 6.46297 10.0065 6.54183 9.92018 6.6611L9.34527 7.52093C8.91425 7.23668 8.42744 7.06327 7.92314 7.01434C7.41883 6.96541 6.91079 7.0423 6.43898 7.23896C5.96717 7.43562 5.54447 7.74668 5.20413 8.14767C4.86379 8.54866 4.6151 9.02864 4.47763 9.54984C4.34016 10.071 4.31766 10.6193 4.41189 11.1513C4.50612 11.6834 4.71452 12.1849 5.02069 12.6162C5.32685 13.0476 5.72244 13.397 6.17632 13.6372C6.6302 13.8773 7.12998 14.0015 7.63636 14ZM7.63636 8.16668C8.01226 8.16914 8.38101 8.27673 8.706 8.47876L7.56654 10.1838L6.93109 9.50426C6.82821 9.39801 6.69043 9.33921 6.54741 9.34054C6.4044 9.34187 6.26759 9.40322 6.16646 9.51137C6.06533 9.61952 6.00796 9.76583 6.00672 9.91878C6.00548 10.0717 6.06046 10.2191 6.15981 10.3291L7.25072 11.4958C7.35299 11.6052 7.49171 11.6666 7.63636 11.6667C7.65109 11.6667 7.66636 11.6667 7.68109 11.6667C7.76004 11.6596 7.83661 11.6343 7.90547 11.5924C7.97432 11.5505 8.03382 11.493 8.07981 11.424L9.498 9.30126C9.70559 9.66184 9.81637 10.0766 9.81818 10.5C9.81818 10.9615 9.69022 11.4126 9.45048 11.7963C9.21073 12.1801 8.86998 12.4791 8.4713 12.6557C8.07263 12.8323 7.63394 12.8785 7.21071 12.7885C6.78748 12.6985 6.39871 12.4763 6.09358 12.1499C5.78845 11.8236 5.58065 11.4078 5.49646 10.9552C5.41228 10.5026 5.45549 10.0334 5.62062 9.60709C5.78576 9.18073 6.06541 8.81631 6.42421 8.55992C6.783 8.30353 7.20484 8.16668 7.63636 8.16668Z" fill="white"/>
    <path d="M7.63636 22.1667C8.25497 22.1661 8.86076 21.9781 9.38352 21.6243C9.90627 21.2706 10.3246 20.7656 10.5899 20.168C10.8553 19.5704 10.9568 18.9046 10.8828 18.2478C10.8088 17.591 10.5622 16.9701 10.1716 16.457L10.8071 15.5056C10.8846 15.3796 10.9135 15.2264 10.8877 15.0781C10.8619 14.9298 10.7834 14.798 10.6686 14.7103C10.5539 14.6226 10.4118 14.5858 10.2723 14.6077C10.1327 14.6296 10.0065 14.7085 9.92018 14.8278L9.34527 15.6876C8.91425 15.4033 8.42744 15.2299 7.92314 15.181C7.41883 15.1321 6.91079 15.209 6.43898 15.4056C5.96717 15.6023 5.54447 15.9133 5.20413 16.3143C4.86379 16.7153 4.6151 17.1953 4.47763 17.7165C4.34016 18.2377 4.31766 18.7859 4.41189 19.318C4.50612 19.8501 4.71452 20.3515 5.02069 20.7829C5.32685 21.2142 5.72244 21.5637 6.17632 21.8038C6.6302 22.0439 7.12998 22.1681 7.63636 22.1667ZM7.63636 16.3333C8.01226 16.3358 8.38101 16.4434 8.706 16.6454L7.56654 18.3505L6.93109 17.6709C6.82821 17.5647 6.69043 17.5059 6.54741 17.5072C6.4044 17.5085 6.26759 17.5699 6.16646 17.678C6.06533 17.7862 6.00796 17.9325 6.00672 18.0854C6.00548 18.2384 6.06046 18.3857 6.15981 18.4958L7.25072 19.6624C7.35299 19.7718 7.49171 19.8333 7.63636 19.8333C7.65109 19.8333 7.66636 19.8333 7.68109 19.8333C7.76004 19.8263 7.83661 19.8009 7.90547 19.759C7.97432 19.7171 8.03382 19.6597 8.07981 19.5907L9.498 17.4679C9.70559 17.8285 9.81637 18.2432 9.81818 18.6667C9.81818 19.1282 9.69022 19.5793 9.45048 19.963C9.21073 20.3467 8.86998 20.6458 8.4713 20.8224C8.07263 20.999 7.63394 21.0452 7.21071 20.9552C6.78748 20.8651 6.39871 20.6429 6.09358 20.3166C5.78845 19.9903 5.58065 19.5745 5.49646 19.1219C5.41228 18.6693 5.45549 18.2001 5.62062 17.7737C5.78576 17.3474 6.06541 16.983 6.42421 16.7266C6.783 16.4702 7.20484 16.3333 7.63636 16.3333Z" fill="white"/>
    <path d="M7.63636 30.3333C8.25497 30.3328 8.86076 30.1447 9.38352 29.791C9.90627 29.4372 10.3246 28.9323 10.5899 28.3347C10.8553 27.7371 10.9568 27.0713 10.8828 26.4145C10.8088 25.7576 10.5622 25.1367 10.1716 24.6237L10.8071 23.6722C10.8846 23.5463 10.9135 23.393 10.8877 23.2447C10.8619 23.0965 10.7834 22.9646 10.6686 22.8769C10.5539 22.7892 10.4118 22.7525 10.2723 22.7744C10.1327 22.7963 10.0065 22.8751 9.92018 22.9944L9.34527 23.8542C8.91425 23.57 8.42744 23.3966 7.92314 23.3477C7.41883 23.2987 6.91079 23.3756 6.43898 23.5723C5.96717 23.7689 5.54447 24.08 5.20413 24.481C4.86379 24.882 4.6151 25.362 4.47763 25.8832C4.34016 26.4044 4.31766 26.9526 4.41189 27.4847C4.50612 28.0167 4.71452 28.5182 5.02069 28.9495C5.32685 29.3809 5.72244 29.7304 6.17632 29.9705C6.6302 30.2106 7.12998 30.3348 7.63636 30.3333ZM7.63636 24.5C8.01226 24.5025 8.38101 24.61 8.706 24.8121L7.56654 26.5172L6.93109 25.8376C6.82821 25.7313 6.69043 25.6725 6.54741 25.6739C6.4044 25.6752 6.26759 25.7365 6.16646 25.8447C6.06533 25.9528 6.00796 26.0991 6.00672 26.2521C6.00548 26.405 6.06046 26.5524 6.15981 26.6624L7.25072 27.8291C7.35299 27.9385 7.49171 28 7.63636 28C7.65109 28 7.66636 28 7.68109 28C7.76004 27.9929 7.83661 27.9676 7.90547 27.9257C7.97432 27.8838 8.03382 27.8263 8.07981 27.7573L9.498 25.6346C9.70559 25.9952 9.81637 26.4099 9.81818 26.8333C9.81818 27.2948 9.69022 27.7459 9.45048 28.1297C9.21073 28.5134 8.86998 28.8124 8.4713 28.989C8.07263 29.1657 7.63394 29.2119 7.21071 29.1218C6.78748 29.0318 6.39871 28.8096 6.09358 28.4832C5.78845 28.1569 5.58065 27.7412 5.49646 27.2885C5.41228 26.8359 5.45549 26.3668 5.62062 25.9404C5.78576 25.514 6.06541 25.1496 6.42421 24.8932C6.783 24.6368 7.20484 24.5 7.63636 24.5Z" fill="white"/>
    <path d="M13.0909 10.5H18C18.1447 10.5 18.2834 10.4386 18.3857 10.3292C18.488 10.2198 18.5455 10.0714 18.5455 9.91668C18.5455 9.76197 18.488 9.61359 18.3857 9.5042C18.2834 9.3948 18.1447 9.33334 18 9.33334H13.0909C12.9462 9.33334 12.8075 9.3948 12.7052 9.5042C12.6029 9.61359 12.5455 9.76197 12.5455 9.91668C12.5455 10.0714 12.6029 10.2198 12.7052 10.3292C12.8075 10.4386 12.9462 10.5 13.0909 10.5Z" fill="white"/>
    <path d="M13.0909 12.8333H18C18.1447 12.8333 18.2834 12.7719 18.3857 12.6625C18.488 12.5531 18.5455 12.4047 18.5455 12.25C18.5455 12.0953 18.488 11.9469 18.3857 11.8375C18.2834 11.7281 18.1447 11.6667 18 11.6667H13.0909C12.9462 11.6667 12.8075 11.7281 12.7052 11.8375C12.6029 11.9469 12.5455 12.0953 12.5455 12.25C12.5455 12.4047 12.6029 12.5531 12.7052 12.6625C12.8075 12.7719 12.9462 12.8333 13.0909 12.8333Z" fill="white"/>
    <path d="M13.0909 18.6667H18C18.1447 18.6667 18.2834 18.6052 18.3857 18.4958C18.488 18.3864 18.5455 18.238 18.5455 18.0833C18.5455 17.9286 18.488 17.7803 18.3857 17.6709C18.2834 17.5615 18.1447 17.5 18 17.5H13.0909C12.9462 17.5 12.8075 17.5615 12.7052 17.6709C12.6029 17.7803 12.5455 17.9286 12.5455 18.0833C12.5455 18.238 12.6029 18.3864 12.7052 18.4958C12.8075 18.6052 12.9462 18.6667 13.0909 18.6667Z" fill="white"/>
    <path d="M13.0909 21H18C18.1447 21 18.2834 20.9386 18.3857 20.8292C18.488 20.7198 18.5455 20.5714 18.5455 20.4167C18.5455 20.262 18.488 20.1136 18.3857 20.0042C18.2834 19.8948 18.1447 19.8333 18 19.8333H13.0909C12.9462 19.8333 12.8075 19.8948 12.7052 20.0042C12.6029 20.1136 12.5455 20.262 12.5455 20.4167C12.5455 20.5714 12.6029 20.7198 12.7052 20.8292C12.8075 20.9386 12.9462 21 13.0909 21Z" fill="white"/>
    <path d="M13.0909 26.8333H18C18.1447 26.8333 18.2834 26.7719 18.3857 26.6625C18.488 26.5531 18.5455 26.4047 18.5455 26.25C18.5455 26.0953 18.488 25.9469 18.3857 25.8375C18.2834 25.7281 18.1447 25.6667 18 25.6667H13.0909C12.9462 25.6667 12.8075 25.7281 12.7052 25.8375C12.6029 25.9469 12.5455 26.0953 12.5455 26.25C12.5455 26.4047 12.6029 26.5531 12.7052 26.6625C12.8075 26.7719 12.9462 26.8333 13.0909 26.8333Z" fill="white"/>
    <path d="M13.0909 29.1667H18C18.1447 29.1667 18.2834 29.1052 18.3857 28.9958C18.488 28.8864 18.5455 28.738 18.5455 28.5833C18.5455 28.4286 18.488 28.2803 18.3857 28.1709C18.2834 28.0615 18.1447 28 18 28H13.0909C12.9462 28 12.8075 28.0615 12.7052 28.1709C12.6029 28.2803 12.5455 28.4286 12.5455 28.5833C12.5455 28.738 12.6029 28.8864 12.7052 28.9958C12.8075 29.1052 12.9462 29.1667 13.0909 29.1667Z" fill="white"/>
</svg>  