 <svg width="35" height="36" viewBox="0 0 35 36" fill="none" xmlns="http://www.w3.org/2000/svg">
    <path fill-rule="evenodd" clip-rule="evenodd" d="M26.2489 19.6766V15.3057H17.5V10.9304H26.2489V6.56168L35 13.1202L26.2489 19.6787V19.6766ZM21.8755 26.2351H13.1245V6.55949L4.37774 2.18859H21.8777V8.74713H24.0666V2.18859C24.0666 0.985392 23.0816 0.00314331 21.8777 0.00314331H2.18668C1.60709 0.00429953 1.05157 0.234923 0.641741 0.644524C0.23191 1.05412 0.00115687 1.60933 0 2.18859L0 27.0664C0 27.9196 0.481551 28.6634 1.20388 29.0571L13.1245 35.0031V28.4227H21.8755C23.0794 28.4227 24.0644 27.4383 24.0644 26.2351V17.4933H21.8755V26.2395V26.2351Z" fill="white"/>
</svg>