<svg width="122" height="110" viewBox="0 0 122 110" fill="none" xmlns="http://www.w3.org/2000/svg">
<path d="M118.188 51.3333H103.705L75.416 10.5201C75.915 9.55327 76.25 8.49337 76.25 7.33333C76.25 3.27983 72.8397 0 68.625 0C64.4141 0 61 3.28006 61 7.33333C61 11.3866 64.4141 14.6667 68.625 14.6667C68.7813 14.6667 68.9155 14.5878 69.0644 14.5807L94.5455 51.3333H27.4581L52.932 14.5807C53.0883 14.5878 53.2187 14.6667 53.375 14.6667C57.5859 14.6667 61 11.3866 61 7.33333C61 3.28006 57.5859 0 53.375 0C49.1641 0 45.75 3.28006 45.75 7.33333C45.75 8.4936 46.085 9.54617 46.584 10.5201L18.2919 51.3333H3.8125C1.70514 51.3333 0 52.9733 0 55C0 57.0268 1.70514 58.6667 3.8125 58.6667H9.53125L21.0245 102.889C22.041 106.799 26.3077 110 30.5 110H91.5C95.6923 110 99.959 106.799 100.972 102.889L112.469 58.6667H118.188C120.295 58.6667 122 57.0268 122 55C122 52.9733 120.295 51.3333 118.188 51.3333ZM83.875 102.667H38.125C36.0176 102.667 34.3125 101.027 34.3125 99C34.3125 96.9733 36.0176 95.3333 38.125 95.3333H83.875C85.9824 95.3333 87.6875 96.9733 87.6875 99C87.6875 101.027 85.9824 102.667 83.875 102.667ZM87.6875 88H34.3125C32.2051 88 30.5 86.3601 30.5 84.3333C30.5 82.3066 32.2051 80.6667 34.3125 80.6667H87.6875C89.7949 80.6667 91.5 82.3066 91.5 84.3333C91.5 86.3601 89.7949 88 87.6875 88ZM91.5 73.3333H30.5C28.3926 73.3333 26.6875 71.6934 26.6875 69.6667C26.6875 67.6399 28.3926 66 30.5 66H91.5C93.6074 66 95.3125 67.6399 95.3125 69.6667C95.3125 71.6934 93.6074 73.3333 91.5 73.3333Z" fill="#C70C14" fill-opacity="0.9"/>
</svg>
