<svg width="36" height="38" viewBox="0 0 36 38" fill="none" xmlns="http://www.w3.org/2000/svg">
    <path d="M18 26.6C16.576 26.6 15.1839 26.1543 13.9999 25.3192C12.8159 24.4841 11.893 23.2971 11.3481 21.9084C10.8031 20.5197 10.6605 18.9916 10.9384 17.5173C11.2162 16.0431 11.9019 14.6889 12.9088 13.626C13.9158 12.5631 15.1987 11.8393 16.5954 11.546C17.992 11.2528 19.4397 11.4033 20.7553 11.9785C22.0709 12.5537 23.1954 13.5278 23.9866 14.7777C24.7777 16.0275 25.2 17.4969 25.2 19C25.2 21.0156 24.4414 22.9487 23.0912 24.374C21.7409 25.7993 19.9096 26.6 18 26.6ZM18 13.9333C17.0507 13.9333 16.1226 14.2305 15.3333 14.7872C14.5439 15.3439 13.9287 16.1353 13.5654 17.0611C13.2021 17.9869 13.107 19.0056 13.2922 19.9885C13.4774 20.9713 13.9346 21.8741 14.6059 22.5827C15.2772 23.2913 16.1325 23.7738 17.0636 23.9693C17.9947 24.1648 18.9598 24.0645 19.8369 23.681C20.714 23.2975 21.4636 22.6481 21.9911 21.8149C22.5185 20.9817 22.8 20.0021 22.8 19C22.8 17.6562 22.2943 16.3675 21.3941 15.4173C20.4939 14.4671 19.273 13.9333 18 13.9333Z" fill="white"/>
    <path d="M24 38H12C10.727 38 9.50606 37.4662 8.60588 36.516C7.70571 35.5658 7.2 34.2771 7.2 32.9333V29.7033C7.20215 29.4518 7.27521 29.2067 7.40984 28.9991C7.54448 28.7916 7.73461 28.6311 7.956 28.538L12.324 26.6887C12.4721 26.6194 12.6319 26.5824 12.7938 26.5801C12.9558 26.5777 13.1165 26.61 13.2663 26.6749C13.4161 26.7399 13.5519 26.8362 13.6655 26.958C13.7792 27.0799 13.8682 27.2247 13.9274 27.3839C13.9866 27.543 14.0146 27.7131 14.0098 27.884C14.0051 28.0549 13.9676 28.223 13.8996 28.3782C13.8316 28.5333 13.7346 28.6724 13.6144 28.7869C13.4941 28.9015 13.3532 28.9892 13.2 29.0447L9.6 30.5647V32.9333C9.6 33.6052 9.85285 34.2496 10.3029 34.7247C10.753 35.1998 11.3635 35.4667 12 35.4667H24C24.6365 35.4667 25.247 35.1998 25.697 34.7247C26.1471 34.2496 26.4 33.6052 26.4 32.9333V30.5647L22.8 29.0447C22.504 28.9204 22.2669 28.677 22.1409 28.3682C22.0149 28.0594 22.0102 27.7104 22.128 27.398C22.2457 27.0856 22.4763 26.8353 22.7688 26.7023C23.0614 26.5693 23.392 26.5644 23.688 26.6887L28.056 28.538C28.2774 28.6311 28.4675 28.7916 28.6021 28.9991C28.7368 29.2067 28.8098 29.4518 28.812 29.7033V32.9333C28.812 33.5998 28.6874 34.2596 28.4455 34.8752C28.2035 35.4907 27.8489 36.0498 27.4019 36.5205C26.9549 36.9911 26.4243 37.3641 25.8406 37.618C25.2568 37.8718 24.6313 38.0017 24 38Z" fill="white"/>
    <path d="M9.60001 12.6667C8.41332 12.6667 7.25328 12.2952 6.26659 11.5993C5.2799 10.9034 4.51086 9.91426 4.05674 8.75699C3.60261 7.59973 3.48379 6.32631 3.7153 5.09776C3.94681 3.86922 4.51826 2.74072 5.35737 1.85499C6.19649 0.96926 7.26558 0.366069 8.42947 0.121696C9.59335 -0.122677 10.7998 0.00274413 11.8961 0.482099C12.9925 0.961454 13.9295 1.77321 14.5888 2.81472C15.2481 3.85623 15.6 5.08072 15.6 6.33333C15.6 7.16504 15.4448 7.9886 15.1433 8.75699C14.8418 9.52539 14.3998 10.2236 13.8426 10.8117C13.2855 11.3998 12.6241 11.8663 11.8961 12.1846C11.1682 12.5028 10.3879 12.6667 9.60001 12.6667ZM9.60001 2.53333C8.888 2.53333 8.19197 2.7562 7.59996 3.17375C7.00794 3.5913 6.54652 4.18478 6.27404 4.87914C6.00157 5.5735 5.93028 6.33755 6.06918 7.07468C6.20809 7.8118 6.55096 8.4889 7.05443 9.02034C7.55789 9.55178 8.19935 9.91369 8.89768 10.0603C9.59602 10.2069 10.3199 10.1317 10.9777 9.84407C11.6355 9.55646 12.1977 9.06941 12.5933 8.4445C12.9889 7.81959 13.2 7.0849 13.2 6.33333C13.2 5.32551 12.8207 4.35897 12.1456 3.64633C11.4705 2.93369 10.5548 2.53333 9.60001 2.53333Z" fill="white"/>
    <path d="M8.4 23.294H4.8C3.52696 23.294 2.30606 22.7602 1.40589 21.81C0.505713 20.8598 5.62554e-07 19.5711 5.62554e-07 18.2273V16.0107C-0.000232096 15.757 0.0717063 15.5091 0.206498 15.299C0.341289 15.089 0.532722 14.9265 0.756 14.8327L4.584 13.2493C4.87553 13.1272 5.20078 13.1304 5.49011 13.2582C5.77944 13.3861 6.00984 13.6284 6.132 13.9333C6.19045 14.088 6.21943 14.2533 6.21729 14.4199C6.21514 14.5864 6.18191 14.7508 6.1195 14.9038C6.05708 15.0567 5.9667 15.1952 5.85354 15.3112C5.74037 15.4272 5.60664 15.5186 5.46 15.58L2.4 16.872V18.2273C2.4 18.8992 2.65286 19.5436 3.10294 20.0187C3.55303 20.4938 4.16348 20.7607 4.8 20.7607H8.4C8.71826 20.7607 9.02348 20.8941 9.24852 21.1317C9.47357 21.3692 9.6 21.6914 9.6 22.0273C9.6 22.3633 9.47357 22.6855 9.24852 22.923C9.02348 23.1605 8.71826 23.294 8.4 23.294Z" fill="white"/>
    <path d="M26.4 12.6667C25.2133 12.6667 24.0533 12.2952 23.0666 11.5993C22.0799 10.9034 21.3108 9.91426 20.8567 8.75699C20.4026 7.59973 20.2838 6.32631 20.5153 5.09776C20.7468 3.86922 21.3182 2.74072 22.1573 1.85499C22.9965 0.96926 24.0656 0.366069 25.2294 0.121696C26.3933 -0.122677 27.5997 0.00274413 28.6961 0.482099C29.7924 0.961454 30.7295 1.77321 31.3888 2.81472C32.0481 3.85623 32.4 5.08072 32.4 6.33333C32.4 8.01304 31.7678 9.62394 30.6426 10.8117C29.5174 11.9994 27.9913 12.6667 26.4 12.6667ZM26.4 2.53333C25.688 2.53333 24.992 2.7562 24.3999 3.17375C23.8079 3.5913 23.3465 4.18478 23.074 4.87914C22.8015 5.5735 22.7303 6.33755 22.8692 7.07468C23.0081 7.8118 23.3509 8.4889 23.8544 9.02034C24.3579 9.55178 24.9993 9.91369 25.6977 10.0603C26.396 10.2069 27.1198 10.1317 27.7776 9.84407C28.4355 9.55646 28.9977 9.06941 29.3933 8.4445C29.7888 7.81959 30 7.0849 30 6.33333C30 5.32551 29.6207 4.35897 28.9456 3.64633C28.2704 2.93369 27.3548 2.53333 26.4 2.53333Z" fill="white"/>
    <path d="M31.2 23.294H27.6C27.2817 23.294 26.9765 23.1605 26.7514 22.923C26.5264 22.6854 26.4 22.3633 26.4 22.0273C26.4 21.6914 26.5264 21.3692 26.7514 21.1317C26.9765 20.8941 27.2817 20.7607 27.6 20.7607H31.2C31.8365 20.7607 32.4469 20.4938 32.897 20.0187C33.3471 19.5436 33.6 18.8992 33.6 18.2273V16.872L30.54 15.6053C30.3933 15.5439 30.2596 15.4526 30.1464 15.3365C30.0333 15.2205 29.9429 15.082 29.8805 14.9291C29.8181 14.7761 29.7848 14.6117 29.7827 14.4452C29.7805 14.2787 29.8095 14.1133 29.868 13.9587C29.9833 13.6468 30.2108 13.3958 30.5009 13.2606C30.7909 13.1253 31.1199 13.1167 31.416 13.2367L35.244 14.82C35.4673 14.9139 35.6587 15.0763 35.7935 15.2864C35.9283 15.4964 36.0002 15.7443 36 15.998V18.2147C36.0016 18.8811 35.8786 19.5413 35.638 20.1575C35.3975 20.7737 35.0442 21.3337 34.5983 21.8055C34.1525 22.2773 33.6228 22.6517 33.0396 22.9071C32.4565 23.1625 31.8313 23.294 31.2 23.294Z" fill="white"/>
</svg>