 <svg width="26" height="34" viewBox="0 0 26 34" fill="none" xmlns="http://www.w3.org/2000/svg">
    <path d="M13 18.1333C11.2859 18.1333 9.61027 17.6016 8.18505 16.6053C6.75982 15.6091 5.64899 14.193 4.99304 12.5363C4.33708 10.8796 4.16545 9.05661 4.49985 7.29785C4.83426 5.53909 5.65968 3.92356 6.87173 2.65557C8.08379 1.38757 9.62804 0.524057 11.3092 0.174218C12.9904 -0.175622 14.733 0.00392841 16.3166 0.690163C17.9002 1.3764 19.2538 2.53849 20.2061 4.0295C21.1584 5.52051 21.6667 7.27345 21.6667 9.06667C21.6667 11.4713 20.7536 13.7774 19.1282 15.4778C17.5029 17.1781 15.2985 18.1333 13 18.1333ZM13 2.26667C11.7144 2.26667 10.4577 2.66548 9.38878 3.41268C8.31986 4.15987 7.48674 5.22189 6.99477 6.46442C6.5028 7.70696 6.37408 9.07421 6.62489 10.3933C6.87569 11.7124 7.49476 12.924 8.4038 13.875C9.31284 14.826 10.471 15.4736 11.7319 15.736C12.9928 15.9984 14.2997 15.8637 15.4874 15.349C16.6752 14.8344 17.6903 13.9628 18.4045 12.8445C19.1188 11.7263 19.5 10.4116 19.5 9.06667C19.5 7.2632 18.8152 5.53359 17.5962 4.25834C16.3772 2.9831 14.7239 2.26667 13 2.26667Z" fill="white"/>
    <path d="M20.5833 34H5.41667C3.98008 34 2.60233 33.403 1.5865 32.3403C0.570683 31.2776 0 29.8362 0 28.3333V23.8C3.27899e-05 23.6033 0.048992 23.41 0.142064 23.2392C0.235136 23.0683 0.369116 22.9257 0.530833 22.8253L5.9475 19.4253C6.19189 19.3098 6.46856 19.2932 6.72398 19.3787C6.9794 19.4643 7.19541 19.6459 7.33021 19.8885C7.465 20.131 7.50901 20.4173 7.45371 20.6918C7.39841 20.9663 7.24773 21.2097 7.03083 21.3747L2.16667 24.446V28.3333C2.16667 29.2351 2.50908 30.0999 3.11857 30.7375C3.72806 31.3751 4.55471 31.7333 5.41667 31.7333H20.5833C21.4453 31.7333 22.2719 31.3751 22.8814 30.7375C23.4909 30.0999 23.8333 29.2351 23.8333 28.3333V24.446L18.9475 21.3747C18.8094 21.3094 18.6859 21.2145 18.585 21.0961C18.4841 20.9777 18.4081 20.8385 18.3619 20.6875C18.3157 20.5365 18.3003 20.377 18.3167 20.2193C18.3331 20.0617 18.3809 19.9094 18.4571 19.7723C18.5333 19.6352 18.6361 19.5164 18.759 19.4234C18.8818 19.3305 19.0219 19.2656 19.1703 19.2329C19.3186 19.2002 19.4718 19.2005 19.6201 19.2336C19.7683 19.2668 19.9082 19.3321 20.0308 19.4253L25.4475 22.8253C25.6133 22.9228 25.7516 23.0642 25.8485 23.2353C25.9455 23.4063 25.9978 23.6011 26 23.8V28.3333C26 29.8362 25.4293 31.2776 24.4135 32.3403C23.3977 33.403 22.0199 34 20.5833 34Z" fill="white"/>
</svg>