<svg width="123" height="110" viewBox="0 0 123 110" fill="none" xmlns="http://www.w3.org/2000/svg">
<path d="M121.649 1.48419C120.749 0.495826 119.679 0 118.446 0H45.5563C44.3227 0 43.2544 0.495826 42.3534 1.48419C41.4521 2.47393 41.0011 3.64645 41.0011 5.0004V20.0005H29.6116C28.3301 20.0005 26.9414 20.339 25.4467 21.016C23.9518 21.694 22.7539 22.5259 21.8526 23.5156L7.75823 38.9844C7.14167 39.6614 6.60838 40.4421 6.15662 41.3281C5.7061 42.212 5.37377 43.0082 5.1601 43.7101C4.94694 44.4139 4.79186 45.3763 4.69787 46.6013C4.60363 47.8258 4.54329 48.7242 4.51961 49.2975C4.49692 49.8699 4.49692 50.8599 4.51961 52.2664C4.54354 53.6734 4.55551 54.5841 4.55551 55.0014V80.0006C3.32214 80.0006 2.25457 80.4951 1.35254 81.4859C0.451013 82.4735 0 83.6465 0 85.0007C0 85.7809 0.0942416 86.4718 0.284221 87.07C0.474449 87.6692 0.794322 88.1506 1.24608 88.5159C1.6966 88.8812 2.08827 89.1797 2.42011 89.4147C2.75295 89.6487 3.31042 89.8044 4.09328 89.8829C4.87613 89.9615 5.40967 90.014 5.69464 90.0403C5.9796 90.0646 6.5842 90.0646 7.50941 90.0403C8.43562 90.014 8.96916 90.0009 9.11177 90.0009H13.667C13.667 95.5201 15.4469 100.234 19.0051 104.141C22.5646 108.047 26.8589 110 31.8893 110C36.9193 110 41.214 108.047 44.7727 104.141C48.3322 100.234 50.1109 95.5201 50.1109 90.0009H77.4452C77.4452 95.5201 79.225 100.234 82.7835 104.141C86.3415 108.047 90.6365 110 95.6669 110C100.698 110 104.991 108.047 108.55 104.141C112.11 100.234 113.889 95.5201 113.889 90.0009C114.03 90.0009 114.565 90.014 115.489 90.0403C116.415 90.0646 117.02 90.0646 117.305 90.0403C117.59 90.014 118.125 89.9615 118.907 89.8829C119.69 89.8044 120.247 89.649 120.58 89.4147C120.912 89.1805 121.303 88.8812 121.754 88.5159C122.205 88.1506 122.526 87.6692 122.715 87.07C122.907 86.4715 123 85.7806 123 85.0007V5.00122C123.001 3.647 122.55 2.47585 121.649 1.48419ZM38.2943 97.0319C36.4919 99.0103 34.3558 100.002 31.8883 100.002C29.4206 100.002 27.2849 99.0114 25.4816 97.0319C23.6783 95.0541 22.777 92.7093 22.777 90.0014C22.777 87.2933 23.6793 84.9474 25.4816 82.9687C27.2847 80.9909 29.4203 80.0003 31.8883 80.0003C34.3558 80.0003 36.4917 80.9901 38.2943 82.9687C40.0983 84.9474 41.0001 87.2933 41.0001 90.0014C41.0001 92.7093 40.0983 95.0541 38.2943 97.0319ZM41.0001 50.0004H13.666V47.6576C13.666 46.9803 13.8792 46.4073 14.3063 45.9383L28.1867 30.7045C28.6135 30.2355 29.1364 30.0018 29.7532 30.0018H41.0001V50.0004ZM102.073 97.0319C100.27 99.0103 98.1342 100.002 95.6669 100.002C93.1987 100.002 91.0621 99.0114 89.2595 97.0319C87.4567 95.0541 86.5547 92.7093 86.5547 90.0014C86.5547 87.2933 87.4565 84.9474 89.2595 82.9687C91.0621 80.9909 93.1987 80.0003 95.6669 80.0003C98.1342 80.0003 100.27 80.9901 102.073 82.9687C103.875 84.9485 104.778 87.2933 104.778 90.0014C104.778 92.7093 103.877 95.0541 102.073 97.0319Z" fill="#2FA71C" fill-opacity="0.8"/>
</svg>
