<?xml version="1.0" ?><!DOCTYPE svg  PUBLIC '-//W3C//DTD SVG 1.1//EN'  'http://www.w3.org/Graphics/SVG/1.1/DTD/svg11.dtd'><svg height="126px" style="enable-background:new 0 0 121 126;" version="1.1" viewBox="0 0 121 126" width="121px" xml:space="preserve" xmlns="http://www.w3.org/2000/svg" xmlns:xlink="http://www.w3.org/1999/xlink"><style type="text/css">
<![CDATA[
	.st0{fill:#EF3E42;}
	.st1{fill:#FFFFFF;}
	.st2{fill:none;}
	.st3{fill-rule:evenodd;clip-rule:evenodd;fill:#FFFFFF;}
]]>
</style><defs/><path d="M54,52.7c-1.9,1.3-3.1,3.5-3.1,6c0,4.1,3.3,7.3,7.3,7.3c4.1,0,7.3-3.3,7.3-7.3c0-2.5-1.2-4.6-3.1-6V14  c0-2.4-1.9-4.3-4.3-4.3c-2.4,0-4.3,1.9-4.3,4.3V52.7L54,52.7z M96,109.7L108,79H8.5l12,30.7c1.6,4,6.1,7.3,10.1,7.3h55.3  C89.9,116.9,94.5,113.7,96,109.7L96,109.7z M113.7,70.2v-6.4c0-2-1.6-3.6-3.6-3.6h-39c-1,6.2-6.4,10.9-12.9,10.9  c-6.5,0-11.8-4.7-12.9-10.9h-39c-2,0-3.6,1.6-3.6,3.6v6.4c0,2,1.6,3.6,3.6,3.6h103.8C112.2,73.8,113.7,72.2,113.7,70.2L113.7,70.2z"/><rect class="st2" height="126" id="_x3C_Slice_x3E__100_" width="121"/></svg>