<?xml version="1.0" ?><!DOCTYPE svg  PUBLIC '-//W3C//DTD SVG 1.1//EN'  'http://www.w3.org/Graphics/SVG/1.1/DTD/svg11.dtd'><svg enable-background="new 0 0 128 128" height="128px" id="Layer_1" version="1.1" viewBox="0 0 128 128" width="128px" xml:space="preserve" xmlns="http://www.w3.org/2000/svg" xmlns:xlink="http://www.w3.org/1999/xlink"><path d="M112.627,63.604C106.584,57.56,98.548,54.231,90,54.231s-16.584,3.329-22.627,9.373  C61.329,69.646,58,77.684,58,86.23s3.329,16.584,9.373,22.627C73.416,114.9,81.452,118.23,90,118.23s16.584-3.33,22.627-9.373  c6.044-6.043,9.373-14.08,9.373-22.627C122,77.682,118.671,69.646,112.627,63.604z M90,114.23c-7.479,0-14.512-2.914-19.799-8.201  C64.913,100.741,62,93.71,62,86.23c0-6.81,2.42-13.24,6.842-18.33l39.486,39.486C103.24,111.811,96.809,114.23,90,114.23z   M111.157,104.561L71.671,65.073C76.76,60.651,83.191,58.231,90,58.231c7.479,0,14.512,2.912,19.799,8.201  C115.087,71.72,118,78.751,118,86.23C118,93.039,115.579,99.471,111.157,104.561z" fill="#221F1F"/><path d="M94.486,36.495c-1.803-4.585-5.086-9.463-9.004-13.382C79.21,16.841,71.18,12.627,65.503,12.627  c-2.273,0-4.167,0.692-5.477,2.001c-5.241,5.24,0.324,17.293,8.486,25.455C74.783,46.355,82.813,50.57,88.49,50.57  c2.273,0,4.167-0.692,5.477-2.001C96.406,46.131,96.591,41.843,94.486,36.495z M62.854,17.457c0.551-0.55,1.442-0.83,2.648-0.83  c4.145,0,10.512,3.268,15.696,7.941L69.961,35.807C63.138,28.3,60.449,19.863,62.854,17.457z M91.141,45.741  c-0.552,0.55-1.441,0.83-2.648,0.83c-4.145,0-10.512-3.269-15.696-7.942l11.233-11.234c2.929,3.25,5.341,7.015,6.736,10.565  C92.186,41.57,92.329,44.552,91.141,45.741z" fill="#221F1F"/><path d="M30.75,122.542c-0.239,0-0.482-0.032-0.719-0.099c-6.399-1.786-14.028-6.976-14.028-21.551v-7.276  c0-0.8,0.896-1.449,2-1.449s2,0.649,2,1.449v7.276c0,10.234,3.965,16.752,11.466,18.847c1.03,0.288,1.544,1.127,1.147,1.874  C32.311,122.188,31.554,122.542,30.75,122.542z" fill="#221F1F"/><circle cx="22.127" cy="12.127" fill="#221F1F" r="2"/><circle cx="16.127" cy="19.75" fill="#221F1F" r="2"/><circle cx="19.127" cy="27.099" fill="#221F1F" r="2"/><circle cx="26.377" cy="19.75" fill="#221F1F" r="2"/><circle cx="38.377" cy="12.627" fill="#221F1F" r="2"/><circle cx="30.127" cy="8.627" fill="#221F1F" r="2"/><circle cx="34.127" cy="42.57" fill="#221F1F" r="2"/><circle cx="44.46" cy="20.25" fill="#221F1F" r="2"/><circle cx="36.377" cy="22.25" fill="#221F1F" r="2"/><circle cx="38.377" cy="33" fill="#221F1F" r="2"/><circle cx="32.127" cy="56.23" fill="#221F1F" r="2"/><circle cx="28.127" cy="31" fill="#221F1F" r="2"/><circle cx="14.127" cy="46.07" fill="#221F1F" r="2"/><circle cx="24.127" cy="42.17" fill="#221F1F" r="2"/><circle cx="16.127" cy="35" fill="#221F1F" id="XMLID_14_" r="2"/><circle cx="45.627" cy="29.599" fill="#221F1F" id="XMLID_13_" r="2"/><circle cx="38.377" cy="49.168" fill="#221F1F" id="XMLID_12_" r="2"/><circle cx="43.627" cy="42.17" fill="#221F1F" id="XMLID_8_" r="2"/><circle cx="24.377" cy="51.23" fill="#221F1F" id="XMLID_11_" r="2"/><circle cx="16.127" cy="55.73" fill="#221F1F" id="XMLID_10_" r="2"/><circle cx="43.627" cy="56.23" fill="#221F1F" id="XMLID_9_" r="2"/><path d="M30,0C16.767,0,6,10.878,6,24.25v79.5C6,117.121,16.767,128,30,128s24-10.879,24-24.25v-79.5  C54,10.878,43.233,0,30,0z M30,4c11.028,0,20,9.084,20,20.25V62H10V24.25C10,13.084,18.972,4,30,4z M30,124  c-11.028,0-20-9.084-20-20.25V66h40v37.75C50,114.916,41.028,124,30,124z" fill="#221F1F"/></svg>