<svg width="120" height="110" viewBox="0 0 120 110" fill="none" xmlns="http://www.w3.org/2000/svg">
<path d="M105.588 54.6597C99.9225 49.4656 92.3888 46.6048 84.375 46.6048C76.3612 46.6048 68.8275 49.4656 63.1622 54.6597C57.4959 59.852 54.375 66.7597 54.375 74.1039C54.375 81.4481 57.4959 88.3558 63.1622 93.549C68.8275 98.7422 76.3612 101.604 84.375 101.604C92.3888 101.604 99.9225 98.7422 105.588 93.549C111.254 88.3558 114.375 81.449 114.375 74.1039C114.375 66.758 111.254 59.852 105.588 54.6597ZM84.375 98.1664C77.3634 98.1664 70.77 95.6622 65.8134 91.1187C60.8559 86.5743 58.125 80.532 58.125 74.1039C58.125 68.2516 60.3938 62.7258 64.5394 58.3516L101.558 92.2849C96.7875 96.0876 90.7584 98.1664 84.375 98.1664ZM104.21 89.8571L67.1916 55.9221C71.9625 52.122 77.9916 50.0423 84.375 50.0423C91.3866 50.0423 97.98 52.5448 102.937 57.09C107.894 61.6344 110.625 67.6766 110.625 74.1039C110.625 79.9554 108.355 85.4829 104.21 89.8571Z" fill="#0E5597"/>
<path d="M88.5806 31.3629C86.8903 27.4226 83.8125 23.2306 80.1394 19.8627C74.2594 14.4727 66.7313 10.8513 61.4091 10.8513C59.2781 10.8513 57.5025 11.446 56.2744 12.5709C51.3609 17.0741 56.5781 27.4321 64.23 34.4463C70.1091 39.8363 77.6372 43.4586 82.9594 43.4586C85.0903 43.4586 86.8659 42.8639 88.0941 41.739C90.3806 39.6438 90.5541 35.9588 88.5806 31.3629ZM58.9256 15.0021C59.4422 14.5294 60.2775 14.2888 61.4081 14.2888C65.2941 14.2888 71.2631 17.0973 76.1231 21.1131L65.5884 30.7716C59.1919 24.3203 56.6709 17.0698 58.9256 15.0021ZM85.4447 39.3087C84.9272 39.7813 84.0937 40.0219 82.9622 40.0219C79.0762 40.0219 73.1072 37.2127 68.2472 33.1968L78.7781 23.5426C81.5241 26.3355 83.7853 29.5711 85.0931 32.6219C86.4244 35.7242 86.5584 38.2869 85.4447 39.3087Z" fill="#0E5597"/>
<path d="M28.8281 105.31C28.6041 105.31 28.3762 105.282 28.1541 105.224C22.155 103.69 15.0028 99.2295 15.0028 86.7041V80.4513C15.0028 79.7638 15.8428 79.206 16.8778 79.206C17.9128 79.206 18.7528 79.7638 18.7528 80.4513V86.7041C18.7528 95.4989 22.47 101.1 29.5022 102.901C30.4678 103.148 30.9497 103.869 30.5775 104.511C30.2916 105.005 29.5819 105.31 28.8281 105.31Z" fill="#0E5597"/>
<path d="M20.7441 12.1404C21.7796 12.1404 22.6191 11.3709 22.6191 10.4216C22.6191 9.47239 21.7796 8.70288 20.7441 8.70288C19.7085 8.70288 18.8691 9.47239 18.8691 10.4216C18.8691 11.3709 19.7085 12.1404 20.7441 12.1404Z" fill="#0E5597"/>
<path d="M15.1191 18.6914C16.1546 18.6914 16.9941 17.9219 16.9941 16.9727C16.9941 16.0234 16.1546 15.2539 15.1191 15.2539C14.0835 15.2539 13.2441 16.0234 13.2441 16.9727C13.2441 17.9219 14.0835 18.6914 15.1191 18.6914Z" fill="#0E5597"/>
<path d="M17.9316 25.007C18.9671 25.007 19.8066 24.2374 19.8066 23.2882C19.8066 22.339 18.9671 21.5695 17.9316 21.5695C16.896 21.5695 16.0566 22.339 16.0566 23.2882C16.0566 24.2374 16.896 25.007 17.9316 25.007Z" fill="#0E5597"/>
<path d="M24.7284 18.6914C25.764 18.6914 26.6034 17.9219 26.6034 16.9727C26.6034 16.0234 25.764 15.2539 24.7284 15.2539C23.6929 15.2539 22.8534 16.0234 22.8534 16.9727C22.8534 17.9219 23.6929 18.6914 24.7284 18.6914Z" fill="#0E5597"/>
<path d="M35.9784 12.5701C37.014 12.5701 37.8534 11.8006 37.8534 10.8513C37.8534 9.90208 37.014 9.13257 35.9784 9.13257C34.9429 9.13257 34.1034 9.90208 34.1034 10.8513C34.1034 11.8006 34.9429 12.5701 35.9784 12.5701Z" fill="#0E5597"/>
<path d="M28.2441 9.13257C29.2796 9.13257 30.1191 8.36306 30.1191 7.41382C30.1191 6.46458 29.2796 5.69507 28.2441 5.69507C27.2085 5.69507 26.3691 6.46458 26.3691 7.41382C26.3691 8.36306 27.2085 9.13257 28.2441 9.13257Z" fill="#0E5597"/>
<path d="M31.9941 38.3023C33.0296 38.3023 33.8691 37.5328 33.8691 36.5836C33.8691 35.6343 33.0296 34.8648 31.9941 34.8648C30.9585 34.8648 30.1191 35.6343 30.1191 36.5836C30.1191 37.5328 30.9585 38.3023 31.9941 38.3023Z" fill="#0E5597"/>
<path d="M41.6812 19.1211C42.7168 19.1211 43.5562 18.3516 43.5562 17.4023C43.5562 16.4531 42.7168 15.6836 41.6812 15.6836C40.6457 15.6836 39.8062 16.4531 39.8062 17.4023C39.8062 18.3516 40.6457 19.1211 41.6812 19.1211Z" fill="#0E5597"/>
<path d="M34.1034 20.8398C35.139 20.8398 35.9784 20.0703 35.9784 19.1211C35.9784 18.1719 35.139 17.4023 34.1034 17.4023C33.0679 17.4023 32.2284 18.1719 32.2284 19.1211C32.2284 20.0703 33.0679 20.8398 34.1034 20.8398Z" fill="#0E5597"/>
<path d="M35.9784 30.0781C37.014 30.0781 37.8534 29.3086 37.8534 28.3594C37.8534 27.4101 37.014 26.6406 35.9784 26.6406C34.9429 26.6406 34.1034 27.4101 34.1034 28.3594C34.1034 29.3086 34.9429 30.0781 35.9784 30.0781Z" fill="#0E5597"/>
<path d="M30.1191 50.0414C31.1546 50.0414 31.9941 49.2719 31.9941 48.3227C31.9941 47.3734 31.1546 46.6039 30.1191 46.6039C29.0835 46.6039 28.2441 47.3734 28.2441 48.3227C28.2441 49.2719 29.0835 50.0414 30.1191 50.0414Z" fill="#0E5597"/>
<path d="M26.3691 28.3594C27.4046 28.3594 28.2441 27.5899 28.2441 26.6406C28.2441 25.6914 27.4046 24.9219 26.3691 24.9219C25.3335 24.9219 24.4941 25.6914 24.4941 26.6406C24.4941 27.5899 25.3335 28.3594 26.3691 28.3594Z" fill="#0E5597"/>
<path d="M13.2441 41.3102C14.2796 41.3102 15.1191 40.5406 15.1191 39.5914C15.1191 38.6422 14.2796 37.8727 13.2441 37.8727C12.2085 37.8727 11.3691 38.6422 11.3691 39.5914C11.3691 40.5406 12.2085 41.3102 13.2441 41.3102Z" fill="#0E5597"/>
<path d="M22.6191 37.9586C23.6546 37.9586 24.4941 37.1891 24.4941 36.2398C24.4941 35.2906 23.6546 34.5211 22.6191 34.5211C21.5835 34.5211 20.7441 35.2906 20.7441 36.2398C20.7441 37.1891 21.5835 37.9586 22.6191 37.9586Z" fill="#0E5597"/>
<path d="M15.1191 31.7969C16.1546 31.7969 16.9941 31.0274 16.9941 30.0781C16.9941 29.1289 16.1546 28.3594 15.1191 28.3594C14.0835 28.3594 13.2441 29.1289 13.2441 30.0781C13.2441 31.0274 14.0835 31.7969 15.1191 31.7969Z" fill="#0E5597"/>
<path d="M42.7753 27.1554C43.8108 27.1554 44.6503 26.3859 44.6503 25.4366C44.6503 24.4874 43.8108 23.7179 42.7753 23.7179C41.7398 23.7179 40.9003 24.4874 40.9003 25.4366C40.9003 26.3859 41.7398 27.1554 42.7753 27.1554Z" fill="#0E5597"/>
<path d="M35.9784 43.9725C37.014 43.9725 37.8534 43.203 37.8534 42.2538C37.8534 41.3045 37.014 40.535 35.9784 40.535C34.9429 40.535 34.1034 41.3045 34.1034 42.2538C34.1034 43.203 34.9429 43.9725 35.9784 43.9725Z" fill="#0E5597"/>
<path d="M40.9003 37.9586C41.9358 37.9586 42.7753 37.1891 42.7753 36.2398C42.7753 35.2906 41.9358 34.5211 40.9003 34.5211C39.8648 34.5211 39.0253 35.2906 39.0253 36.2398C39.0253 37.1891 39.8648 37.9586 40.9003 37.9586Z" fill="#0E5597"/>
<path d="M22.8534 45.7445C23.889 45.7445 24.7284 44.975 24.7284 44.0258C24.7284 43.0765 23.889 42.307 22.8534 42.307C21.8179 42.307 20.9784 43.0765 20.9784 44.0258C20.9784 44.975 21.8179 45.7445 22.8534 45.7445Z" fill="#0E5597"/>
<path d="M15.1191 49.6117C16.1546 49.6117 16.9941 48.8422 16.9941 47.893C16.9941 46.9437 16.1546 46.1742 15.1191 46.1742C14.0835 46.1742 13.2441 46.9437 13.2441 47.893C13.2441 48.8422 14.0835 49.6117 15.1191 49.6117Z" fill="#0E5597"/>
<path d="M40.9003 50.0414C41.9358 50.0414 42.7753 49.2719 42.7753 48.3227C42.7753 47.3734 41.9358 46.6039 40.9003 46.6039C39.8648 46.6039 39.0253 47.3734 39.0253 48.3227C39.0253 49.2719 39.8648 50.0414 40.9003 50.0414Z" fill="#0E5597"/>
<path d="M28.125 0C15.7191 0 5.625 9.34828 5.625 20.8398V89.1602C5.625 100.651 15.7191 110 28.125 110C40.5309 110 50.625 100.651 50.625 89.1602V20.8398C50.625 9.34828 40.5309 0 28.125 0ZM28.125 3.4375C38.4637 3.4375 46.875 11.2441 46.875 20.8398V53.2812H9.375V20.8398C9.375 11.2441 17.7863 3.4375 28.125 3.4375ZM28.125 106.562C17.7863 106.562 9.375 98.7559 9.375 89.1602V56.7188H46.875V89.1602C46.875 98.7559 38.4637 106.562 28.125 106.562Z" fill="#0E5597"/>
</svg>
